<?xml version="1.0" encoding="UTF-8" standalone="no"?>
<!-- Created with Inkscape (http://www.inkscape.org/) -->

<svg
   width="1227.6248mm"
   height="1248.5138mm"
   viewBox="0 0 1227.6248 1248.5138"
   version="1.1"
   id="svg5"
   xml:space="preserve"
   inkscape:version="1.2.2 (732a01da63, 2022-12-09)"
   sodipodi:docname="Locus.svg"
   xmlns:inkscape="http://www.inkscape.org/namespaces/inkscape"
   xmlns:sodipodi="http://sodipodi.sourceforge.net/DTD/sodipodi-0.dtd"
   xmlns="http://www.w3.org/2000/svg"
   xmlns:svg="http://www.w3.org/2000/svg"><sodipodi:namedview
     id="namedview7"
     pagecolor="#ffffff"
     bordercolor="#000000"
     borderopacity="0.25"
     inkscape:showpageshadow="2"
     inkscape:pageopacity="0.0"
     inkscape:pagecheckerboard="0"
     inkscape:deskcolor="#d1d1d1"
     inkscape:document-units="mm"
     showgrid="false"
     inkscape:zoom="0.71624578"
     inkscape:cx="-788.13728"
     inkscape:cy="1126.0101"
     inkscape:window-width="1920"
     inkscape:window-height="991"
     inkscape:window-x="-9"
     inkscape:window-y="-9"
     inkscape:window-maximized="1"
     inkscape:current-layer="layer1" /><defs
     id="defs2" /><g
     inkscape:label="Capa 1"
     inkscape:groupmode="layer"
     id="layer1"
     transform="translate(-135.42205,1384.6075)"><path
       style="fill:#ffff00;fill-opacity:1;stroke:#000000;stroke-width:15.619;stroke-dasharray:none;stroke-opacity:1"
       id="path2216"
       sodipodi:type="arc"
       sodipodi:cx="749.23444"
       sodipodi:cy="-760.35065"
       sodipodi:rx="606.0011"
       sodipodi:ry="616.4494"
       sodipodi:start="4.4137828"
       sodipodi:end="4.4006862"
       sodipodi:open="true"
       sodipodi:arc-type="arc"
       d="M 570.95597,-1349.5206 A 606.0011,616.4494 0 0 1 1327.8316,-943.63094 606.0011,616.4494 0 0 1 931.30172,-172.38087 606.0011,616.4494 0 0 1 171.82947,-573.22016 606.0011,616.4494 0 0 1 563.38614,-1347.095"
       inkscape:export-filename="..\Documentos\LabNEI\OBSERVATORIO REGIONAL\RADIOS NORMALISTAS\svg\Micro3.svg"
       inkscape:export-xdpi="300"
       inkscape:export-ydpi="300" /><path
       style="fill:#000000;stroke-width:2.41446"
       d="m 621.07276,-289.89753 c -2.75033,-2.75033 -1.8176,-15.02383 1.79974,-23.68128 5.99842,-14.35608 11.98898,-15.77669 66.5274,-15.77669 h 48.46863 l -0.66352,-39.23483 -0.66339,-39.23471 -16.46985,-1.62795 c -53.24888,-5.26365 -102.32503,-37.79972 -127.08477,-84.25367 -17.09126,-32.06643 -17.78506,-35.88508 -19.27205,-106.06678 l -1.35553,-63.98276 -14.40319,-0.73964 c -7.92179,-0.40686 -15.7989,-1.89796 -17.50479,-3.31369 -3.90479,-3.24076 -4.01893,-12.17195 -0.20427,-15.98661 2.20737,-2.20737 51.04858,-2.89733 205.09096,-2.89733 H 947.5318 l 3.57759,5.10779 c 2.32549,3.32011 2.91353,6.9115 1.68024,10.26141 -1.6357,4.44233 -4.1099,5.25209 -17.92752,5.86758 l -16.02977,0.71383 v 53.10934 c 0,64.23439 -2.69204,80.73031 -18.43663,112.97609 -23.97878,49.10966 -74.60702,84.32031 -127.69388,88.80785 l -18.05186,1.52589 v 39.48402 39.48417 h 45.90998 45.90984 l 8.31095,7.84695 c 7.03499,6.64214 8.40723,9.70021 8.93834,19.91912 l 0.62728,12.07218 -120.82093,0.62576 c -66.45153,0.34409 -121.55525,-0.10912 -122.45267,-1.00604 z m 178.24452,-135.99823 c 50.4426,-15.9052 88.28454,-54.95902 102.95232,-106.24961 3.82254,-13.36672 4.49038,-24.4118 4.49038,-74.26009 v -58.55798 H 744.99225 583.22439 v 55.14596 c 0,46.98189 0.70484,57.90219 4.76126,73.76245 11.10607,43.42451 41.05357,80.99826 79.82609,100.154 27.41787,13.54608 46.83911,17.27215 84.42377,16.19742 22.54479,-0.64476 34.45662,-2.21136 47.08177,-6.19215 z m -87.49314,-30.25231 c -33.4294,-7.26277 -67.5463,-33.76627 -82.31861,-63.94873 -11.51036,-23.51772 -14.80326,-43.4588 -14.85141,-89.93805 l -0.0423,-40.44193 H 744.99178 875.3719 v 43.34119 c 0,49.25744 -1.97694,61.93189 -13.42218,86.05649 -9.65889,20.35911 -34.08032,44.98751 -54.53099,54.99304 -26.04554,12.74302 -64.35379,16.72548 -95.59493,9.93799 z m -95.6024,-244.22731 c -2.63323,-2.63325 -1.83145,-268.35058 0.86214,-285.70931 7.11217,-45.83411 43.85344,-86.90261 88.92838,-99.40161 19.914,-5.5219 56.54551,-5.8689 76.30352,-0.7225 43.32282,11.2842 78.07539,46.0367 89.35952,89.35944 3.11699,11.96707 3.69695,36.4844 3.69695,156.28439 v 142.09075 l -9.05419,-0.74926 -9.05416,-0.74941 -1.20725,-147.28122 -1.20723,-147.28105 -8.0349,-16.43304 c -10.44525,-21.3626 -29.11504,-40.0044 -50.37979,-50.3047 -15.13413,-7.3307 -18.65503,-8.033 -44.54367,-8.8853 -32.61618,-1.0737 -48.66634,2.4689 -68.26951,15.0685 -14.75652,9.4846 -30.61551,26.2988 -37.46155,39.718 -11.90065,23.32734 -12.23228,28.12761 -12.23228,177.07548 v 139.53056 h -8.04812 c -4.42656,0 -8.77249,-0.72436 -9.65786,-1.60972 z m 34.6071,-4.88132 c 0,-4.83881 0.70677,-5.84024 2.70872,-3.83827 3.70913,3.70913 9.36347,1.12877 9.36347,-4.27326 0,-5.93333 -4.22693,-8.21825 -8.55629,-4.62532 -3.02572,2.51114 -3.5159,0.36271 -3.5159,-15.41014 0,-15.36841 0.58981,-18.10193 3.65237,-16.92666 4.87553,1.87087 10.90361,-3.39213 9.14225,-7.98201 -0.8959,-2.33473 -3.4684,-3.26695 -7.09985,-2.57276 -5.57306,1.06536 -5.69477,0.70254 -5.69477,-16.98046 0,-15.1775 0.53871,-17.62214 3.36581,-15.27585 2.60436,2.1614 4.28226,1.87716 7.41582,-1.2564 3.62516,-3.62516 3.6647,-4.43529 0.37707,-7.72292 -3.02136,-3.02122 -4.33707,-3.12175 -7.41582,-0.56671 -3.32498,2.75944 -3.74288,1.05985 -3.74288,-15.22193 0,-15.36827 0.58981,-18.10178 3.65237,-16.92653 4.87553,1.87087 10.90361,-3.39213 9.14225,-7.982 -0.8959,-2.33473 -3.4684,-3.26695 -7.09985,-2.57276 -5.57306,1.06536 -5.69477,0.70253 -5.69477,-16.9806 0,-15.5461 0.49095,-17.66167 3.5159,-15.15118 4.36134,3.61964 8.55629,1.29519 8.55629,-4.74112 0,-6.03628 -4.19495,-8.36073 -8.55629,-4.7411 -3.02572,2.51115 -3.5159,0.36271 -3.5159,-15.41026 0,-15.36829 0.58981,-18.10177 3.65237,-16.92669 4.87553,1.87099 10.90361,-3.39199 9.14225,-7.98186 -0.8959,-2.33471 -3.4684,-3.26694 -7.09985,-2.57275 -5.57729,1.06608 -5.69477,0.71198 -5.69477,-17.16781 0,-13.49293 0.70677,-17.54974 2.70872,-15.54776 3.70913,3.70928 9.36347,1.12873 9.36347,-4.27321 0,-5.93319 -4.22693,-8.21837 -8.55629,-4.6252 -8.07495,6.70163 -2.11275,-25.21234 6.09856,-32.64348 2.61705,-2.3684 4.14705,-5.2953 3.39996,-6.5042 -2.12303,-3.4351 6.2724,-14.5856 9.92606,-13.1834 3.81235,1.4629 8.92719,-3.8344 7.92846,-8.2116 -0.86739,-3.8011 15.74729,-15.4722 27.60533,-19.3914 8.33751,-2.7558 9.30838,-2.5596 13.6063,2.7481 4.02676,4.9727 5.14911,5.2831 8.63651,2.3889 2.20456,-1.8297 3.44967,-4.7822 2.7669,-6.5614 -0.93479,-2.4361 1.72117,-3.2349 10.75517,-3.2349 10.16076,0 11.99645,0.6994 11.99645,4.5706 0,4.8716 4.09583,7.4672 9.05417,5.7376 1.65993,-0.5791 3.01802,-2.592 3.01802,-4.4731 0,-4.996 6.83356,-4.161 20.5228,2.507 16.08765,7.8362 20.52281,11.7002 20.52281,17.8794 0,4.7052 2.52501,6.3729 8.11822,5.3618 3.33205,-0.6022 8.62242,7.7613 8.70612,13.7634 0.0423,3.0295 1.65389,6.1135 3.58163,6.8532 3.74944,1.4388 7.17612,10.66294 9.75916,26.26961 1.29389,7.81814 1.01081,9.08284 -1.48673,6.63977 -6.88314,-6.73337 -15.49745,0.45519 -9.37938,7.82689 2.17771,2.62411 4.12203,2.90647 7.51339,1.0915 4.31705,-2.3104 4.57536,-1.33655 4.57536,17.2475 0,17.15893 -0.46258,19.31223 -3.59088,16.71597 -4.41321,-3.66265 -10.89578,-1.52304 -10.89578,3.59618 0,5.11912 6.48257,7.25863 10.89578,3.59619 3.12881,-2.59679 3.59088,-0.41882 3.59088,16.9265 0,17.34545 -0.46207,19.52343 -3.59088,16.92664 -4.74317,-3.93636 -10.89578,-1.38042 -10.89578,4.52645 0,5.63855 4.4593,7.67876 10.26141,4.69463 3.85639,-1.98333 4.22525,-0.45346 4.22525,17.52303 0,17.15891 -0.46258,19.31223 -3.59088,16.71597 -4.41321,-3.66264 -10.89578,-1.52306 -10.89578,3.59615 0,5.11908 6.48257,7.25867 10.89578,3.59615 3.12881,-2.59678 3.59088,-0.41879 3.59088,16.92666 0,17.34534 -0.46207,19.52331 -3.59088,16.92653 -7.20308,-5.978 -14.73509,2.4128 -8.11143,9.03646 1.91568,1.91567 4.17544,2.03983 7.24327,0.39788 4.1663,-2.22971 4.45904,-1.09361 4.45904,17.30976 0,17.15905 -0.46258,19.31223 -3.59088,16.71598 -4.41321,-3.66265 -10.89578,-1.52293 -10.89578,3.59615 0,5.11908 6.48257,7.25879 10.89578,3.59615 3.12881,-2.59679 3.59088,-0.4188 3.59088,16.92666 0,17.34547 -0.46207,19.52331 -3.59088,16.92666 -4.72404,-3.92072 -10.89578,-1.38916 -10.89578,4.46919 0,6.28933 6.21577,8.26008 10.99105,3.48483 3.57366,-3.57368 3.82287,-3.32179 3.08798,3.12059 l -0.79961,7.00818 -94.76697,0.63167 -94.76696,0.63154 z m 48.28887,-9.2402 c 0,-3.53786 -6.62867,-6.66359 -9.87559,-4.65688 -3.25117,2.00927 -2.66444,10.15985 0.82142,11.41213 3.73429,1.34153 9.05417,-2.62771 9.05417,-6.75525 z m 33.90289,4.74496 c 2.56595,-3.09183 2.40739,-4.44158 -0.91169,-7.76067 -3.74751,-3.74751 -4.28816,-3.74751 -8.03567,0 -3.31908,3.31909 -3.47765,4.66884 -0.91155,7.76067 1.70846,2.05871 3.92662,3.74289 4.92944,3.74289 1.00272,0 3.22101,-1.68418 4.92947,-3.74289 z m 35.64009,-4.41141 c -0.46489,-3.25822 -2.47814,-5.12511 -5.5271,-5.12511 -5.52441,0 -8.1195,8.10564 -3.50769,10.95585 4.83202,2.9863 9.83235,-0.24073 9.03479,-5.83074 z m 34.37882,4.41141 c 2.56597,-3.09183 2.40741,-4.44158 -0.91168,-7.76067 -3.74752,-3.74751 -4.28816,-3.74751 -8.03568,0 -3.31909,3.31909 -3.47763,4.66884 -0.91154,7.76067 1.70845,2.05871 3.9266,3.74289 4.92944,3.74289 1.00272,0 3.22101,-1.68418 4.92946,-3.74289 z m -122.03014,-24.02317 c 0,-5.57936 -8.13556,-8.03798 -11.0411,-3.33667 -2.51397,4.06758 2.16128,9.80946 7.19742,8.83964 2.11403,-0.40713 3.84368,-2.88348 3.84368,-5.50297 z m 34.57384,-0.62833 c 0.57967,-4.06348 -0.43524,-5.40783 -4.08288,-5.40783 -5.77899,0 -8.52187,3.65212 -6.56768,8.74464 2.06526,5.38214 9.75004,2.97447 10.65056,-3.33681 z m 35.44508,0.59521 c 0,-3.13524 -1.88102,-5.06298 -5.43249,-5.56729 -4.00069,-0.56825 -5.43247,0.43921 -5.43247,3.82274 0,2.52695 0.76185,5.35635 1.69305,6.28755 3.20289,3.20289 9.17191,0.24638 9.17191,-4.543 z m 34.57383,-0.59521 c 0.57967,-4.06348 -0.43523,-5.40783 -4.08287,-5.40783 -5.779,0 -8.52187,3.65212 -6.56768,8.74464 2.06526,5.38214 9.75003,2.97447 10.65055,-3.33681 z m 35.44507,0.59521 c 0,-3.13524 -1.881,-5.06298 -5.43248,-5.56729 -4.00069,-0.56825 -5.43247,0.43921 -5.43247,3.82274 0,2.52695 0.76185,5.35635 1.69306,6.28755 3.20287,3.20289 9.17189,0.24638 9.17189,-4.543 z m -122.38231,-21.12829 c 0.96086,-4.98967 -6.00919,-8.3519 -9.68776,-4.67319 -3.67871,3.6787 -0.31661,10.64874 4.67306,9.68776 2.31266,-0.44537 4.56933,-2.70192 5.0147,-5.01457 z m 34.90547,2.44938 c 1.71257,-4.90943 -0.84878,-9.05418 -5.59502,-9.05418 -5.44865,0 -7.61943,3.15206 -5.66987,8.23276 1.74723,4.55327 9.75928,5.13744 11.26489,0.82142 z m 35.11346,-2.44938 c 0.96085,-4.98967 -6.0092,-8.3519 -9.68777,-4.67319 -3.67871,3.6787 -0.31661,10.64874 4.67306,9.68776 2.31265,-0.44537 4.56933,-2.70192 5.01471,-5.01457 z m 35.2118,1.62796 c 1.95599,-5.09714 -0.22521,-8.23276 -5.72688,-8.23276 -4.79657,0 -7.29359,4.12498 -5.48088,9.05418 1.58532,4.31087 9.45975,3.73365 11.20776,-0.82142 z m -123.99282,-19.21891 c 2.56236,-3.08759 2.42397,-4.42501 -0.79048,-7.63959 -5.46637,-5.46638 -12.49972,-0.0462 -8.8322,6.80713 2.97258,5.55445 5.52082,5.7749 9.62268,0.83246 z m 35.6401,-4.38675 c -0.88305,-6.15916 -8.60802,-8.24726 -10.66647,-2.88308 -1.90938,4.97593 3.22858,11.1184 7.825,9.35459 1.97793,-0.75889 3.24628,-3.64775 2.84147,-6.47151 z m 33.82007,-3.0211 c -4.54724,-4.54724 -9.19963,-2.60101 -9.19963,3.84868 0,5.82882 5.07671,7.62728 9.57156,3.39085 3.09968,-2.92146 3.05385,-3.81363 -0.37193,-7.23953 z m 36.67478,3.79155 c 0,-6.33389 -4.65227,-8.33892 -9.07844,-3.91274 -3.04806,3.04805 -3.20379,4.48792 -0.79896,7.38551 3.7637,4.53505 9.8774,2.38545 9.8774,-3.47277 z m 35.34699,-3.49702 c -0.84158,-2.19312 -3.4223,-3.62299 -5.73496,-3.17761 -5.23373,1.00798 -7.07662,9.13236 -2.68703,11.84635 4.35915,2.69512 10.39763,-3.52026 8.42199,-8.66874 z M 699.11771,-797.758 c 0,-4.53967 -6.14118,-8.20937 -9.87559,-5.90135 -3.25247,2.01004 -2.66392,10.16485 0.82142,11.3807 4.86871,1.69818 9.05417,-0.83467 9.05417,-5.47935 z m 33.90289,3.50049 c 2.56595,-3.09183 2.40739,-4.44158 -0.91169,-7.76066 -3.74751,-3.74751 -4.28816,-3.74751 -8.03567,0 -3.31908,3.31908 -3.47765,4.66883 -0.91155,7.76066 1.70846,2.05858 3.92662,3.74289 4.92944,3.74289 1.00272,0 3.22101,-1.68431 4.92947,-3.74289 z m 35.64009,-4.4114 c -0.46489,-3.25837 -2.47814,-5.12511 -5.5271,-5.12511 -5.52441,0 -8.1195,8.10564 -3.50769,10.95585 4.83202,2.9863 9.83235,-0.24073 9.03479,-5.83074 z m 34.37882,4.4114 c 2.56236,-3.08747 2.42397,-4.42502 -0.79048,-7.63946 -5.46637,-5.4665 -12.49972,-0.0462 -8.83219,6.80701 2.97255,5.55443 5.5208,5.77488 9.62267,0.83245 z m -122.03014,-24.02317 c 0,-5.57935 -8.13556,-8.03797 -11.0411,-3.33667 -2.51397,4.06759 2.16128,9.80948 7.19742,8.83964 2.11403,-0.40714 3.84368,-2.88348 3.84368,-5.50297 z m 34.57384,-0.62833 c 0.57967,-4.06347 -0.43524,-5.40783 -4.08288,-5.40783 -5.77899,0 -8.52187,3.65212 -6.56768,8.74463 2.06526,5.38216 9.75004,2.97449 10.65056,-3.3368 z m 35.44508,0.5952 c 0,-3.13522 -1.88102,-5.06296 -5.43249,-5.56741 -4.00069,-0.56812 -5.43247,0.43935 -5.43247,3.82288 0,2.52694 0.76185,5.35635 1.69305,6.28755 3.20289,3.20288 9.17191,0.24625 9.17191,-4.54302 z m 34.57383,-0.5952 c 0.57967,-4.06347 -0.43523,-5.40783 -4.08287,-5.40783 -5.779,0 -8.52187,3.65212 -6.56768,8.74463 2.06526,5.38216 9.75003,2.97449 10.65055,-3.3368 z m 36.19949,1.19684 c 0.96085,-4.98968 -6.0092,-8.35177 -9.68777,-4.67307 -3.6787,3.67856 -0.31661,10.64862 4.67307,9.68776 2.31265,-0.44537 4.56931,-2.70204 5.0147,-5.01469 z m -123.13673,-21.73004 c 0.96086,-4.98955 -6.00919,-8.35177 -9.68776,-4.67307 -3.67871,3.6787 -0.31661,10.64862 4.67306,9.68777 2.31266,-0.44539 4.56933,-2.70193 5.0147,-5.0147 z m 34.90547,2.4495 c 1.71257,-4.90942 -0.84878,-9.05417 -5.59502,-9.05417 -5.44865,0 -7.61943,3.15205 -5.66987,8.23276 1.74723,4.55314 9.75928,5.13744 11.26489,0.82141 z m 35.11346,-2.4495 c 0.96085,-4.98955 -6.0092,-8.35177 -9.68777,-4.67307 -3.67871,3.6787 -0.31661,10.64862 4.67306,9.68777 2.31265,-0.44539 4.56933,-2.70193 5.01471,-5.0147 z m 35.2118,1.62809 c 1.95599,-5.09728 -0.22521,-8.23276 -5.72688,-8.23276 -4.79657,0 -7.29359,4.12498 -5.48088,9.05417 1.58532,4.31089 9.45975,3.73365 11.20776,-0.82141 z m -124.7833,-26.85851 c -3.76279,-3.7628 -4.48395,-3.79411 -7.93309,-0.34484 -3.44927,3.44914 -3.41795,4.17041 0.34484,7.93308 3.7628,3.76279 4.48396,3.79425 7.93322,0.34498 3.44915,-3.44914 3.41782,-4.17043 -0.34497,-7.93322 z m 36.43058,3.25285 c -0.88305,-6.15916 -8.60802,-8.24726 -10.66647,-2.88308 -1.90938,4.97593 3.22858,11.11838 7.825,9.35459 1.97793,-0.75902 3.24628,-3.64775 2.84147,-6.47151 z m 33.82007,-3.0211 c -4.54724,-4.54726 -9.19963,-2.60102 -9.19963,3.84868 0,5.82868 5.07671,7.62728 9.57156,3.39085 3.09968,-2.92159 3.05385,-3.81363 -0.37193,-7.23953 z m 36.67478,3.79155 c 0,-6.33389 -4.65227,-8.33893 -9.07844,-3.91276 -3.04806,3.04806 -3.20379,4.48793 -0.79896,7.38553 3.7637,4.53505 9.8774,2.38545 9.8774,-3.47277 z m 36.21668,-1.12879 c 0,-3.53786 -6.62866,-6.66359 -9.87559,-4.65688 -3.25117,2.00939 -2.66443,10.15984 0.82142,11.41214 3.73429,1.34153 9.05417,-2.62758 9.05417,-6.75526 z m -123.61264,-21.39635 c -0.46489,-3.25836 -2.47816,-5.12513 -5.5271,-5.12513 -5.52441,0 -8.1195,8.10551 -3.50768,10.95586 4.832,2.9863 9.83233,-0.24099 9.03478,-5.83073 z m 34.37882,4.41139 c 2.56595,-3.09182 2.40739,-4.44158 -0.91169,-7.76066 -3.74751,-3.74751 -4.28816,-3.74751 -8.03567,0 -3.31908,3.31908 -3.47765,4.66884 -0.91155,7.76066 1.70846,2.05858 3.92662,3.7429 4.92944,3.7429 1.00272,0 3.22101,-1.68432 4.92947,-3.7429 z m 35.64009,-4.41139 c -0.46489,-3.25836 -2.47814,-5.12513 -5.5271,-5.12513 -5.52441,0 -8.1195,8.10551 -3.50769,10.95586 4.83202,2.9863 9.83235,-0.24099 9.03479,-5.83073 z m 34.37882,4.41139 c 2.56597,-3.09182 2.40741,-4.44158 -0.91168,-7.76066 -3.74752,-3.74751 -4.28816,-3.74751 -8.03568,0 -3.31909,3.31908 -3.47763,4.66884 -0.91154,7.76066 1.70845,2.05858 3.9266,3.7429 4.92944,3.7429 1.00272,0 3.22101,-1.68432 4.92946,-3.7429 z m -122.03014,-24.02333 c 0,-5.57914 -8.13556,-8.03778 -11.0411,-3.33647 -2.51397,4.06756 2.16128,9.8094 7.19742,8.83964 2.11403,-0.40726 3.84368,-2.88348 3.84368,-5.50317 z m 34.57384,-0.62813 c 0.57967,-4.06348 -0.43524,-5.40787 -4.08288,-5.40787 -5.77899,0 -8.52187,3.65211 -6.56768,8.74464 2.06526,5.38211 9.75004,2.9745 10.65056,-3.33677 z m 35.44508,0.5952 c 0,-3.13523 -1.88102,-5.06297 -5.43249,-5.56748 -4.00069,-0.56811 -5.43247,0.43937 -5.43247,3.82288 0,2.52693 0.76185,5.35633 1.69305,6.28754 3.20289,3.20292 9.17191,0.24632 9.17191,-4.54294 z m 34.57383,-0.5952 c 0.57967,-4.06348 -0.43523,-5.40787 -4.08287,-5.40787 -5.779,0 -8.52187,3.65211 -6.56768,8.74464 2.06526,5.38211 9.75003,2.9745 10.65055,-3.33677 z m 36.19949,1.19675 c 0.96085,-4.98966 -6.0092,-8.35169 -9.68777,-4.67309 -3.6787,3.6787 -0.31661,10.64867 4.67307,9.68771 2.31265,-0.44521 4.56931,-2.70189 5.0147,-5.01462 z m -123.13673,-21.72996 c 0.96086,-4.98968 -6.00919,-8.35181 -9.68776,-4.67311 -3.67871,3.67861 -0.31661,10.64868 4.67306,9.68782 2.31266,-0.44541 4.56933,-2.7021 5.0147,-5.01471 z m 34.90547,2.44953 c 1.71257,-4.9095 -0.84878,-9.05427 -5.59502,-9.05427 -5.44865,0 -7.61943,3.1521 -5.66987,8.23267 1.74723,4.55326 9.75928,5.13753 11.26489,0.8216 z m 35.11346,-2.44953 c 0.96085,-4.98968 -6.0092,-8.35181 -9.68777,-4.67311 -3.67871,3.67861 -0.31661,10.64868 4.67306,9.68782 2.31265,-0.44541 4.56933,-2.7021 5.01471,-5.01471 z m 35.2118,1.62793 c 1.94969,-5.08057 -0.22109,-8.23267 -5.66975,-8.23267 -5.40204,0 -7.98239,5.6544 -4.27313,9.36368 3.84932,3.84926 8.22259,3.3519 9.94288,-1.13101 z m -124.7833,-26.85838 c -3.76279,-3.76275 -4.48395,-3.79417 -7.93309,-0.3448 -3.44927,3.44915 -3.41795,4.17024 0.34484,7.93308 3.7628,3.76275 4.48396,3.79404 7.93322,0.34501 3.44915,-3.44936 3.41782,-4.17043 -0.34497,-7.93329 z m 36.43058,3.25283 c -0.88305,-6.15911 -8.60802,-8.24715 -10.66647,-2.88309 -1.90938,4.97597 3.22858,11.11841 7.825,9.35467 1.97793,-0.7591 3.24628,-3.64782 2.84147,-6.47158 z m 33.82007,-3.02104 c -4.54724,-4.5473 -9.19963,-2.60103 -9.19963,3.84856 0,5.82873 5.07671,7.62733 9.57156,3.39095 3.09968,-2.92162 3.05385,-3.81377 -0.37193,-7.23951 z m 36.67478,3.79149 c 0,-6.33386 -4.65227,-8.33888 -9.07844,-3.91275 -3.04806,3.04811 -3.20379,4.48782 -0.79896,7.38552 3.7637,4.53496 9.8774,2.38543 9.8774,-3.47277 z m 36.21668,-1.12876 c 0,-3.53788 -6.62866,-6.66361 -9.87559,-4.65692 -3.25117,2.00933 -2.66443,10.15989 0.82142,11.41218 3.73429,1.34153 9.05417,-2.62756 9.05417,-6.75526 z m -124.00641,-24.09833 c -0.84159,-2.19303 -3.42231,-3.62297 -5.73497,-3.17751 -5.23373,1.00796 -7.0766,9.13239 -2.68703,11.8463 4.35917,2.69517 10.39763,-3.52029 8.422,-8.66879 z m 37.0864,3.82363 c 0,-1.11874 -1.68419,-3.43174 -3.74278,-5.14019 -3.08759,-2.56243 -4.42514,-2.42407 -7.63959,0.7903 -5.46638,5.46658 -0.0462,12.49994 6.807,8.83234 2.51654,-1.34673 4.57537,-3.3638 4.57537,-4.48245 z m 33.32628,-1.12168 c -0.46489,-3.25838 -2.47814,-5.12521 -5.5271,-5.12521 -5.52441,0 -8.1195,8.1056 -3.50769,10.956 4.83202,2.9862 9.83235,-0.24102 9.03479,-5.83079 z m 34.37882,4.41139 c 2.56597,-3.09179 2.40741,-4.44156 -0.91168,-7.76064 -3.74752,-3.7475 -4.28816,-3.7475 -8.03568,0 -3.31909,3.31908 -3.47763,4.66885 -0.91154,7.76064 1.70845,2.05867 3.9266,3.74295 4.92944,3.74295 1.00272,0 3.22101,-1.68428 4.92946,-3.74295 z m -122.03014,-24.02312 c 0,-5.57937 -8.13556,-8.03797 -11.0411,-3.3366 -2.51397,4.0675 2.16128,9.8095 7.19742,8.8395 2.11403,-0.4072 3.84368,-2.8835 3.84368,-5.5029 z m 34.57384,-0.6283 c 0.57967,-4.06337 -0.43524,-5.40777 -4.08288,-5.40777 -5.77899,0 -8.52187,3.65217 -6.56768,8.74437 2.06526,5.3823 9.75004,2.9746 10.65056,-3.3366 z m 35.44508,0.5952 c 0,-3.1352 -1.88102,-5.06287 -5.43249,-5.56737 -4.00069,-0.5682 -5.43247,0.4394 -5.43247,3.82287 0,2.5269 0.76185,5.3563 1.69305,6.2875 3.20289,3.2028 9.17191,0.2462 9.17191,-4.543 z m 34.57383,-0.5952 c 0.57967,-4.06337 -0.43523,-5.40777 -4.08287,-5.40777 -5.779,0 -8.52187,3.65217 -6.56768,8.74437 2.06526,5.3823 9.75003,2.9746 10.65055,-3.3366 z m 36.19949,1.1968 c 0.96085,-4.98957 -6.0092,-8.35187 -9.68777,-4.6731 -3.6787,3.6786 -0.31661,10.6487 4.67307,9.6877 2.31265,-0.4454 4.56931,-2.7019 5.0147,-5.0146 z m -123.13673,-21.72991 c 0.96086,-4.9898 -6.00919,-8.3518 -9.68776,-4.6731 -3.67871,3.6785 -0.31661,10.6486 4.67306,9.6877 2.31266,-0.4454 4.56933,-2.7019 5.0147,-5.0146 z m 34.90547,2.4494 c 1.71257,-4.9093 -0.84878,-9.0541 -5.59502,-9.0541 -5.44865,0 -7.61943,3.152 -5.66987,8.2326 1.74723,4.5533 9.75928,5.1375 11.26489,0.8215 z m 35.11346,-2.4494 c 0.96085,-4.9898 -6.0092,-8.3518 -9.68777,-4.6731 -3.67871,3.6785 -0.31661,10.6486 4.67306,9.6877 2.31265,-0.4454 4.56933,-2.7019 5.01471,-5.0146 z m 35.2118,1.6279 c 1.95599,-5.0972 -0.22521,-8.2326 -5.72688,-8.2326 -4.79657,0 -7.29359,4.1248 -5.48088,9.0541 1.58532,4.3109 9.45975,3.7336 11.20776,-0.8215 z m -88.35272,-23.6055 c -0.88305,-6.1593 -8.60802,-8.2473 -10.66647,-2.8831 -1.90938,4.9759 3.22858,11.1184 7.825,9.3546 1.97793,-0.7591 3.24628,-3.6477 2.84147,-6.4715 z m 33.82007,-3.0211 c -4.54724,-4.5473 -9.19963,-2.601 -9.19963,3.8485 0,5.8289 5.07671,7.6274 9.57156,3.391 3.09968,-2.9216 3.05385,-3.8138 -0.37193,-7.2395 z m 36.67478,3.7916 c 0,-6.334 -4.65227,-8.3389 -9.07844,-3.9128 -3.04806,3.048 -3.20379,4.4878 -0.79896,7.3855 3.7637,4.5348 9.8774,2.3854 9.8774,-3.4727 z m 338.79396,262.06434 -7.6311,-3.20867 7.2676,-22.53079 c 27.3883,-84.90908 27.552,-171.65206 0.4795,-254.31748 -8.323,-25.4138 -28.8629,-68.7272 -42.8315,-90.3206 -6.1456,-9.5002 -11.1738,-17.7081 -11.1738,-18.2404 0,-0.5322 3.2417,-3.2759 7.2038,-6.0972 l 7.2038,-5.1294 11.1999,17.313 c 59.3082,91.6811 80.776,206.38141 58.8056,314.19208 -5.1861,25.44891 -18.1353,68.60793 -21.1423,70.46634 -0.9626,0.59508 -5.1843,-0.36204 -9.3815,-2.12688 z m -779.24474,-21.34642 c -31.48932,-98.89232 -24.60066,-208.79178 19.09783,-304.68172 9.27012,-20.342 31.78563,-59.0484 40.57122,-69.746 l 5.80403,-7.0672 7.44779,5.3033 7.44766,5.3031 -12.8207,18.6652 c -65.84477,95.8599 -85.44305,223.22379 -52.00365,337.95698 8.46257,29.03583 8.42764,28.68123 2.98233,30.24693 -2.32395,0.66812 -5.97981,1.94135 -8.12426,2.82914 -3.16439,1.31009 -5.12397,-2.2329 -10.40225,-18.80973 z m 730.18434,5.02383 c -3.3199,-1.49392 -6.2662,-2.82326 -6.5473,-2.95408 -0.2813,-0.13095 3.1706,-11.59728 7.6709,-25.4809 23.0502,-71.11212 22.642,-150.50466 -1.1355,-220.84807 -8.7548,-25.8998 -24.9485,-59.4946 -38.7009,-80.2866 l -10.0085,-15.1318 5.6487,-4.707 c 3.1067,-2.5889 6.7762,-4.7431 8.1547,-4.7872 7.3728,-0.2365 39.9507,61.1504 52.5984,99.1116 15.2587,45.79754 17.3373,60.17131 17.2549,119.31515 -0.067,48.81715 -0.5869,55.26814 -6.4076,79.67673 -6.9311,29.06459 -16.7744,57.34715 -20.2697,58.24035 -1.222,0.31238 -4.9382,-0.6544 -8.2581,-2.14818 z m -681.88647,-21.6864 c -12.29392,-37.9589 -16.56205,-72.38997 -15.18958,-122.53307 0.99616,-36.39534 2.34603,-49.36197 7.2891,-70.01874 11.19452,-46.78024 27.44085,-84.97034 52.16502,-122.62314 l 14.69902,-22.3853 7.24133,5.3538 c 3.98272,2.9446 7.24133,5.6553 7.24133,6.0238 0,0.3687 -6.04592,9.9453 -13.43528,21.2816 -43.42734,66.6235 -63.87453,146.66832 -56.76954,222.2371 2.67766,28.47797 10.42766,66.15263 17.93835,87.20105 3.49062,9.78266 3.44607,10.0203 -2.38222,12.67588 -10.54438,4.80427 -12.13998,3.34308 -18.79753,-17.21298 z m 634.20107,5.38614 c -6.6187,-2.6955 -6.6207,-2.77614 -0.508,-20.16768 12.798,-36.41275 15.4355,-53.58655 15.4355,-100.50825 0,-38.19678 -0.784,-47.81479 -5.4115,-66.39705 -9.3643,-37.60211 -24.5137,-73.22791 -42.4551,-99.83851 -4.79067,-7.1053 -8.6759,-13.6242 -8.63421,-14.4868 0.0411,-0.8624 2.81,-3.5595 6.15166,-5.9932 8.03435,-5.8516 10.15535,-3.9463 26.25895,23.5868 47.274,80.8271 57.1353,173.48234 28.1526,264.52327 -6.7199,21.10928 -8.9476,23.37121 -18.9899,19.28142 z m -582.71612,-6.59337 c -10.3858,-27.29861 -19.04827,-77.33406 -19.07009,-110.15088 -0.027,-40.76252 9.58877,-87.48934 26.08329,-126.74734 8.40992,-20.0161 26.27074,-51.1169 36.07134,-62.8102 l 6.84283,-8.1643 6.80712,5.8552 6.80713,5.8551 -10.96882,15.6913 c -49.62654,70.9913 -65.62714,169.67738 -41.02687,253.03836 3.37494,11.43615 6.62828,22.48701 7.22965,24.55739 0.682,2.34834 -1.28066,4.846 -5.21743,6.63971 -9.06226,4.12908 -10.73142,3.6656 -13.55815,-3.76434 z m 535.03077,-9.55398 c -3.98365,-2.06742 -7.46408,-3.92701 -7.73421,-4.13255 -0.26994,-0.20543 2.09637,-7.50119 5.25842,-16.21283 10.00343,-27.55872 14.036,-51.74532 14.036,-84.1832 0,-48.24061 -11.47531,-89.76076 -36.09463,-130.59876 -13.79177,-22.8774 -14.04209,-25.3833 -3.12044,-31.2284 3.35333,-1.7947 5.73633,0.2088 12.67122,10.6537 19.56614,29.4686 35.07469,67.4773 41.73399,102.28198 4.5664,23.86626 4.398,74.64433 -0.33,99.56865 -3.5255,18.58492 -14.15373,52.35081 -17.62065,55.98086 -0.85592,0.89627 -4.81578,-0.0616 -8.7997,-2.12945 z m -485.43361,-7.35253 c -10.7353,-25.48139 -14.30627,-48.79189 -14.33168,-93.5543 -0.0218,-37.93561 0.69444,-46.18091 5.63365,-64.8644 9.14789,-34.60461 28.99025,-76.41661 45.13349,-95.10561 l 7.33185,-8.4883 6.81855,5.8651 6.81869,5.8651 -10.8407,15.5884 c -42.50128,61.11594 -55.14312,139.21176 -34.22154,211.40779 3.15384,10.88345 6.04232,21.12738 6.41888,22.76434 0.37656,1.63693 -2.833,4.46007 -7.13221,6.27355 -7.79724,3.2889 -7.82639,3.27453 -11.62898,-5.75167 z m 51.13716,-26.65306 c -11.17348,-35.37023 -13.4815,-66.28548 -7.50646,-100.54841 6.28382,-36.03403 23.28982,-75.75044 41.29342,-96.43754 l 6.0468,-6.9484 6.88544,6.5968 6.88545,6.5965 -8.42674,11.0397 c -35.47499,46.47471 -46.55822,117.39897 -27.15765,173.78793 2.53733,7.37473 4.61336,14.29727 4.61336,15.38319 0,1.78484 -12.51357,9.34175 -15.46894,9.34175 -0.67223,0 -3.89631,-8.46513 -7.16468,-18.81152 z m 379.36794,15.01612 c -3.65195,-1.98115 -6.6397,-3.92123 -6.6397,-4.31127 0,-0.39016 2.69277,-8.41671 5.98399,-17.83692 8.53792,-24.43737 11.77049,-48.70974 10.05015,-75.46313 -2.31421,-35.99281 -11.63787,-64.12701 -31.58454,-95.30875 l -8.98574,-14.047 6.37342,-6.2869 6.37355,-6.2867 4.83619,5.8838 c 14.2865,17.3814 30.41688,52.37884 37.51275,81.3901 5.45738,22.31268 5.58211,71.28376 0.2358,92.72329 -4.81711,19.31905 -13.65041,43.37381 -15.87893,43.2422 -0.9006,-0.0527 -4.62532,-1.71757 -8.27714,-3.69872 z"
       id="path3517" /></g></svg>
